<mxfile host="Electron" agent="Mozilla/5.0 (X11; Linux x86_64) AppleWebKit/537.36 (KHTML, like Gecko) draw.io/24.7.17 Chrome/132.0.6834.210 Electron/34.5.3 Safari/537.36" version="24.7.17">
  <diagram name="Page-1" id="TmrTgS3KZJcO5TZCn63m">
    <mxGraphModel dx="1247" dy="730" grid="1" gridSize="10" guides="1" tooltips="1" connect="1" arrows="0" fold="1" page="1" pageScale="1" pageWidth="827" pageHeight="1169" math="0" shadow="0">
      <root>
        <mxCell id="0" />
        <mxCell id="1" parent="0" />
        <mxCell id="WVUv6wu7P0Kf-GH2LBz6-386" value="" style="group" vertex="1" connectable="0" parent="1">
          <mxGeometry x="40" y="30" width="730.24" height="170" as="geometry" />
        </mxCell>
        <mxCell id="WVUv6wu7P0Kf-GH2LBz6-382" value="" style="group;fontFamily=Verdana;fontStyle=2;fontSize=18;" vertex="1" connectable="0" parent="WVUv6wu7P0Kf-GH2LBz6-386">
          <mxGeometry width="170.00116400884647" height="170" as="geometry" />
        </mxCell>
        <mxCell id="WVUv6wu7P0Kf-GH2LBz6-1" value="a" style="ellipse;whiteSpace=wrap;html=1;aspect=fixed;fontFamily=Verdana;fontSize=22;fontStyle=0;rounded=0;" vertex="1" parent="WVUv6wu7P0Kf-GH2LBz6-382">
          <mxGeometry x="68.00046560353859" width="33.99999999999999" height="33.99999999999999" as="geometry" />
        </mxCell>
        <mxCell id="WVUv6wu7P0Kf-GH2LBz6-2" value="d" style="ellipse;whiteSpace=wrap;html=1;fontFamily=Verdana;fontSize=22;fontStyle=0;rounded=0;" vertex="1" parent="WVUv6wu7P0Kf-GH2LBz6-382">
          <mxGeometry width="34.00023280176929" height="33.99999999999999" as="geometry" />
        </mxCell>
        <mxCell id="WVUv6wu7P0Kf-GH2LBz6-3" value="b" style="ellipse;whiteSpace=wrap;html=1;fontFamily=Verdana;fontSize=22;fontStyle=0;rounded=0;" vertex="1" parent="WVUv6wu7P0Kf-GH2LBz6-382">
          <mxGeometry x="136.00093120707717" width="34.00023280176929" height="33.99999999999999" as="geometry" />
        </mxCell>
        <mxCell id="WVUv6wu7P0Kf-GH2LBz6-4" value="c" style="ellipse;whiteSpace=wrap;html=1;fontFamily=Verdana;fontSize=22;fontStyle=0;rounded=0;" vertex="1" parent="WVUv6wu7P0Kf-GH2LBz6-382">
          <mxGeometry x="68.00046560353859" y="67.99999999999999" width="34.00023280176929" height="33.99999999999999" as="geometry" />
        </mxCell>
        <mxCell id="WVUv6wu7P0Kf-GH2LBz6-5" value="f" style="ellipse;whiteSpace=wrap;html=1;fontFamily=Verdana;fontSize=22;fontStyle=0;rounded=0;" vertex="1" parent="WVUv6wu7P0Kf-GH2LBz6-382">
          <mxGeometry y="135.99999999999997" width="34.00023280176929" height="33.99999999999999" as="geometry" />
        </mxCell>
        <mxCell id="WVUv6wu7P0Kf-GH2LBz6-7" value="e" style="ellipse;whiteSpace=wrap;html=1;fontFamily=Verdana;fontSize=22;fontStyle=0;rounded=0;" vertex="1" parent="WVUv6wu7P0Kf-GH2LBz6-382">
          <mxGeometry x="136.00093120707717" y="135.99999999999997" width="34.00023280176929" height="33.99999999999999" as="geometry" />
        </mxCell>
        <mxCell id="WVUv6wu7P0Kf-GH2LBz6-12" value="" style="endArrow=none;html=1;rounded=0;fontFamily=Verdana;fontSize=22;fontStyle=0;" edge="1" parent="WVUv6wu7P0Kf-GH2LBz6-382" source="WVUv6wu7P0Kf-GH2LBz6-2" target="WVUv6wu7P0Kf-GH2LBz6-1">
          <mxGeometry width="50" height="50" relative="1" as="geometry">
            <mxPoint x="306.00209521592365" y="289" as="sourcePoint" />
            <mxPoint x="348.5023862181353" y="246.49999999999994" as="targetPoint" />
          </mxGeometry>
        </mxCell>
        <mxCell id="WVUv6wu7P0Kf-GH2LBz6-16" value="" style="endArrow=none;html=1;rounded=0;fontFamily=Verdana;fontSize=22;fontStyle=0;" edge="1" parent="WVUv6wu7P0Kf-GH2LBz6-382" source="WVUv6wu7P0Kf-GH2LBz6-1" target="WVUv6wu7P0Kf-GH2LBz6-3">
          <mxGeometry width="50" height="50" relative="1" as="geometry">
            <mxPoint x="306.00209521592365" y="289" as="sourcePoint" />
            <mxPoint x="348.5023862181353" y="246.49999999999994" as="targetPoint" />
          </mxGeometry>
        </mxCell>
        <mxCell id="WVUv6wu7P0Kf-GH2LBz6-13" value="" style="endArrow=none;html=1;rounded=0;fontFamily=Verdana;fontSize=22;fontStyle=0;" edge="1" parent="WVUv6wu7P0Kf-GH2LBz6-382" source="WVUv6wu7P0Kf-GH2LBz6-4" target="WVUv6wu7P0Kf-GH2LBz6-2">
          <mxGeometry width="50" height="50" relative="1" as="geometry">
            <mxPoint x="306.00209521592365" y="289" as="sourcePoint" />
            <mxPoint x="348.5023862181353" y="246.49999999999994" as="targetPoint" />
          </mxGeometry>
        </mxCell>
        <mxCell id="WVUv6wu7P0Kf-GH2LBz6-10" value="" style="endArrow=none;html=1;rounded=0;fontFamily=Verdana;fontSize=22;fontStyle=0;" edge="1" parent="WVUv6wu7P0Kf-GH2LBz6-382" source="WVUv6wu7P0Kf-GH2LBz6-4" target="WVUv6wu7P0Kf-GH2LBz6-3">
          <mxGeometry width="50" height="50" relative="1" as="geometry">
            <mxPoint x="153.00104760796182" y="76.5" as="sourcePoint" />
            <mxPoint x="195.50133861017346" y="33.99999999999999" as="targetPoint" />
          </mxGeometry>
        </mxCell>
        <mxCell id="WVUv6wu7P0Kf-GH2LBz6-8" value="" style="endArrow=none;html=1;rounded=0;fontFamily=Verdana;fontSize=22;fontStyle=0;" edge="1" parent="WVUv6wu7P0Kf-GH2LBz6-382" source="WVUv6wu7P0Kf-GH2LBz6-5" target="WVUv6wu7P0Kf-GH2LBz6-4">
          <mxGeometry width="50" height="50" relative="1" as="geometry">
            <mxPoint x="306.00209521592365" y="289" as="sourcePoint" />
            <mxPoint x="348.5023862181353" y="246.49999999999994" as="targetPoint" />
          </mxGeometry>
        </mxCell>
        <mxCell id="WVUv6wu7P0Kf-GH2LBz6-14" value="" style="endArrow=none;html=1;rounded=0;fontFamily=Verdana;fontSize=22;fontStyle=0;" edge="1" parent="WVUv6wu7P0Kf-GH2LBz6-382" source="WVUv6wu7P0Kf-GH2LBz6-7" target="WVUv6wu7P0Kf-GH2LBz6-4">
          <mxGeometry width="50" height="50" relative="1" as="geometry">
            <mxPoint x="306.00209521592365" y="289" as="sourcePoint" />
            <mxPoint x="348.5023862181353" y="246.49999999999994" as="targetPoint" />
          </mxGeometry>
        </mxCell>
        <mxCell id="WVUv6wu7P0Kf-GH2LBz6-15" value="" style="endArrow=none;html=1;rounded=0;fontFamily=Verdana;fontSize=22;fontStyle=0;" edge="1" parent="WVUv6wu7P0Kf-GH2LBz6-382" source="WVUv6wu7P0Kf-GH2LBz6-5" target="WVUv6wu7P0Kf-GH2LBz6-7">
          <mxGeometry width="50" height="50" relative="1" as="geometry">
            <mxPoint x="306.00209521592365" y="289" as="sourcePoint" />
            <mxPoint x="348.5023862181353" y="246.49999999999994" as="targetPoint" />
          </mxGeometry>
        </mxCell>
        <mxCell id="WVUv6wu7P0Kf-GH2LBz6-381" value="" style="group;fontFamily=Verdana;" vertex="1" connectable="0" parent="WVUv6wu7P0Kf-GH2LBz6-386">
          <mxGeometry x="227.95633695102651" width="502.2836630489735" height="170" as="geometry" />
        </mxCell>
        <mxCell id="WVUv6wu7P0Kf-GH2LBz6-247" value="" style="ellipse;whiteSpace=wrap;html=1;rounded=0;fontSize=22;fontFamily=Verdana;fontStyle=0" vertex="1" parent="WVUv6wu7P0Kf-GH2LBz6-381">
          <mxGeometry x="486.8287811090049" y="77.27272727272728" width="15.454881939968413" height="15.454545454545455" as="geometry" />
        </mxCell>
        <mxCell id="WVUv6wu7P0Kf-GH2LBz6-248" value="d" style="ellipse;whiteSpace=wrap;html=1;rounded=0;fontSize=22;fontFamily=Verdana;fontStyle=0" vertex="1" parent="WVUv6wu7P0Kf-GH2LBz6-381">
          <mxGeometry x="432.7366943191156" y="69.54545454545453" width="30.909763879936826" height="30.90909090909091" as="geometry" />
        </mxCell>
        <mxCell id="WVUv6wu7P0Kf-GH2LBz6-249" value="ad" style="ellipse;whiteSpace=wrap;html=1;rounded=0;fontSize=22;fontFamily=Verdana;fontStyle=0" vertex="1" parent="WVUv6wu7P0Kf-GH2LBz6-381">
          <mxGeometry x="363.18972558925776" y="69.54545454545453" width="46.36464581990525" height="30.90909090909091" as="geometry" />
        </mxCell>
        <mxCell id="WVUv6wu7P0Kf-GH2LBz6-250" value="acd" style="ellipse;whiteSpace=wrap;html=1;rounded=0;fontSize=22;fontFamily=Verdana;fontStyle=0" vertex="1" parent="WVUv6wu7P0Kf-GH2LBz6-381">
          <mxGeometry x="301.370197829384" y="61.818181818181834" width="46.36464581990525" height="46.36363636363637" as="geometry" />
        </mxCell>
        <mxCell id="WVUv6wu7P0Kf-GH2LBz6-251" value="ac" style="ellipse;whiteSpace=wrap;html=1;rounded=0;fontSize=22;fontFamily=Verdana;fontStyle=0" vertex="1" parent="WVUv6wu7P0Kf-GH2LBz6-381">
          <mxGeometry x="239.55067006951037" y="69.54545454545453" width="46.36464581990525" height="30.90909090909091" as="geometry" />
        </mxCell>
        <mxCell id="WVUv6wu7P0Kf-GH2LBz6-252" value="" style="ellipse;whiteSpace=wrap;html=1;rounded=0;fontSize=22;fontFamily=Verdana;fontStyle=0" vertex="1" parent="WVUv6wu7P0Kf-GH2LBz6-381">
          <mxGeometry x="486.8287811090049" y="139.09090909090912" width="15.454881939968413" height="15.454545454545455" as="geometry" />
        </mxCell>
        <mxCell id="WVUv6wu7P0Kf-GH2LBz6-253" value="b" style="ellipse;whiteSpace=wrap;html=1;rounded=0;fontSize=22;fontFamily=Verdana;fontStyle=0" vertex="1" parent="WVUv6wu7P0Kf-GH2LBz6-381">
          <mxGeometry x="432.7366943191156" y="131.36363636363637" width="30.909763879936826" height="30.90909090909091" as="geometry" />
        </mxCell>
        <mxCell id="WVUv6wu7P0Kf-GH2LBz6-254" value="ab" style="ellipse;whiteSpace=wrap;html=1;rounded=0;fontSize=22;fontFamily=Verdana;fontStyle=0" vertex="1" parent="WVUv6wu7P0Kf-GH2LBz6-381">
          <mxGeometry x="363.18972558925776" y="131.36363636363637" width="46.36464581990525" height="30.90909090909091" as="geometry" />
        </mxCell>
        <mxCell id="WVUv6wu7P0Kf-GH2LBz6-255" value="abc" style="ellipse;whiteSpace=wrap;html=1;rounded=0;fontSize=22;fontFamily=Verdana;fontStyle=0" vertex="1" parent="WVUv6wu7P0Kf-GH2LBz6-381">
          <mxGeometry x="301.370197829384" y="123.63636363636364" width="46.36464581990525" height="46.36363636363637" as="geometry" />
        </mxCell>
        <mxCell id="WVUv6wu7P0Kf-GH2LBz6-256" value="ac" style="ellipse;whiteSpace=wrap;html=1;rounded=0;fontSize=22;fontFamily=Verdana;fontStyle=0" vertex="1" parent="WVUv6wu7P0Kf-GH2LBz6-381">
          <mxGeometry x="239.55067006951037" y="131.36363636363637" width="46.36464581990525" height="30.90909090909091" as="geometry" />
        </mxCell>
        <mxCell id="WVUv6wu7P0Kf-GH2LBz6-257" value="" style="ellipse;whiteSpace=wrap;html=1;rounded=0;fontSize=22;fontFamily=Verdana;fontStyle=0" vertex="1" parent="WVUv6wu7P0Kf-GH2LBz6-381">
          <mxGeometry x="425.00925334913137" y="15.454545454545462" width="15.454881939968413" height="15.454545454545455" as="geometry" />
        </mxCell>
        <mxCell id="WVUv6wu7P0Kf-GH2LBz6-258" value="f" style="ellipse;whiteSpace=wrap;html=1;rounded=0;fontSize=22;fontFamily=Verdana;fontStyle=0" vertex="1" parent="WVUv6wu7P0Kf-GH2LBz6-381">
          <mxGeometry x="370.917166559242" y="7.727272727272736" width="30.909763879936826" height="30.90909090909091" as="geometry" />
        </mxCell>
        <mxCell id="WVUv6wu7P0Kf-GH2LBz6-259" value="cf" style="ellipse;whiteSpace=wrap;html=1;rounded=0;fontSize=22;fontFamily=Verdana;fontStyle=0" vertex="1" parent="WVUv6wu7P0Kf-GH2LBz6-381">
          <mxGeometry x="301.370197829384" y="7.727272727272736" width="46.36464581990525" height="30.90909090909091" as="geometry" />
        </mxCell>
        <mxCell id="WVUv6wu7P0Kf-GH2LBz6-260" value="cef" style="ellipse;whiteSpace=wrap;html=1;rounded=0;fontSize=22;fontFamily=Verdana;fontStyle=0" vertex="1" parent="WVUv6wu7P0Kf-GH2LBz6-381">
          <mxGeometry x="239.55067006951037" width="46.36464581990525" height="46.36363636363637" as="geometry" />
        </mxCell>
        <mxCell id="WVUv6wu7P0Kf-GH2LBz6-261" value="ce" style="ellipse;whiteSpace=wrap;html=1;rounded=0;fontSize=22;fontFamily=Verdana;fontStyle=0" vertex="1" parent="WVUv6wu7P0Kf-GH2LBz6-381">
          <mxGeometry x="177.73114230963674" y="7.727272727272736" width="46.36464581990525" height="30.90909090909091" as="geometry" />
        </mxCell>
        <mxCell id="WVUv6wu7P0Kf-GH2LBz6-262" value="ac" style="ellipse;whiteSpace=wrap;html=1;rounded=0;fontSize=22;fontFamily=Verdana;fontStyle=0" vertex="1" parent="WVUv6wu7P0Kf-GH2LBz6-381">
          <mxGeometry x="177.73114230963674" y="100.45454545454551" width="46.36464581990525" height="30.90909090909091" as="geometry" />
        </mxCell>
        <mxCell id="WVUv6wu7P0Kf-GH2LBz6-263" value="c" style="ellipse;whiteSpace=wrap;html=1;rounded=0;fontSize=22;fontFamily=Verdana;fontStyle=0" vertex="1" parent="WVUv6wu7P0Kf-GH2LBz6-381">
          <mxGeometry x="123.6390555197473" y="100.45454545454551" width="30.909763879936826" height="30.90909090909091" as="geometry" />
        </mxCell>
        <mxCell id="WVUv6wu7P0Kf-GH2LBz6-264" value="c" style="ellipse;whiteSpace=wrap;html=1;rounded=0;fontSize=22;fontFamily=Verdana;fontStyle=0" vertex="1" parent="WVUv6wu7P0Kf-GH2LBz6-381">
          <mxGeometry x="123.6390555197473" y="7.727272727272736" width="30.909763879936826" height="30.90909090909091" as="geometry" />
        </mxCell>
        <mxCell id="WVUv6wu7P0Kf-GH2LBz6-265" value="c" style="ellipse;whiteSpace=wrap;html=1;rounded=0;fontSize=22;fontFamily=Verdana;fontStyle=0" vertex="1" parent="WVUv6wu7P0Kf-GH2LBz6-381">
          <mxGeometry x="77.27440969984207" y="54.09090909090909" width="30.909763879936826" height="30.90909090909091" as="geometry" />
        </mxCell>
        <mxCell id="WVUv6wu7P0Kf-GH2LBz6-266" value="" style="ellipse;whiteSpace=wrap;html=1;rounded=0;fontSize=22;fontFamily=Verdana;fontStyle=0" vertex="1" parent="WVUv6wu7P0Kf-GH2LBz6-381">
          <mxGeometry x="38.63720484992097" y="61.818181818181834" width="15.454881939968413" height="15.454545454545455" as="geometry" />
        </mxCell>
        <mxCell id="WVUv6wu7P0Kf-GH2LBz6-271" value="" style="endArrow=none;html=1;rounded=0;exitX=1;exitY=0.5;exitDx=0;exitDy=0;entryX=0;entryY=0.5;entryDx=0;entryDy=0;fontSize=22;fontFamily=Verdana;fontStyle=0" edge="1" parent="WVUv6wu7P0Kf-GH2LBz6-381" source="WVUv6wu7P0Kf-GH2LBz6-266" target="WVUv6wu7P0Kf-GH2LBz6-265">
          <mxGeometry width="50" height="50" relative="1" as="geometry">
            <mxPoint x="61.81952775987363" y="115.90909090909092" as="sourcePoint" />
            <mxPoint x="100.45673260979466" y="77.27272727272728" as="targetPoint" />
          </mxGeometry>
        </mxCell>
        <mxCell id="WVUv6wu7P0Kf-GH2LBz6-272" value="" style="endArrow=none;html=1;rounded=0;fontSize=22;fontFamily=Verdana;fontStyle=0" edge="1" parent="WVUv6wu7P0Kf-GH2LBz6-381" source="WVUv6wu7P0Kf-GH2LBz6-265" target="WVUv6wu7P0Kf-GH2LBz6-264">
          <mxGeometry width="50" height="50" relative="1" as="geometry">
            <mxPoint x="193.18602424960514" y="85.00000000000001" as="sourcePoint" />
            <mxPoint x="231.82322909952617" y="46.36363636363638" as="targetPoint" />
          </mxGeometry>
        </mxCell>
        <mxCell id="WVUv6wu7P0Kf-GH2LBz6-273" value="" style="endArrow=none;html=1;rounded=0;fontSize=22;fontFamily=Verdana;fontStyle=0" edge="1" parent="WVUv6wu7P0Kf-GH2LBz6-381" source="WVUv6wu7P0Kf-GH2LBz6-262" target="WVUv6wu7P0Kf-GH2LBz6-251">
          <mxGeometry width="50" height="50" relative="1" as="geometry">
            <mxPoint x="162.27626036966834" y="193.18181818181824" as="sourcePoint" />
            <mxPoint x="200.91346521958937" y="154.5454545454546" as="targetPoint" />
          </mxGeometry>
        </mxCell>
        <mxCell id="WVUv6wu7P0Kf-GH2LBz6-274" value="" style="endArrow=none;html=1;rounded=0;fontSize=22;fontFamily=Verdana;fontStyle=0" edge="1" parent="WVUv6wu7P0Kf-GH2LBz6-381" source="WVUv6wu7P0Kf-GH2LBz6-263" target="WVUv6wu7P0Kf-GH2LBz6-265">
          <mxGeometry width="50" height="50" relative="1" as="geometry">
            <mxPoint x="208.64090618957357" y="100.45454545454551" as="sourcePoint" />
            <mxPoint x="247.2781110394946" y="61.818181818181834" as="targetPoint" />
          </mxGeometry>
        </mxCell>
        <mxCell id="WVUv6wu7P0Kf-GH2LBz6-275" value="" style="endArrow=none;html=1;rounded=0;fontSize=22;fontFamily=Verdana;fontStyle=0" edge="1" parent="WVUv6wu7P0Kf-GH2LBz6-381" source="WVUv6wu7P0Kf-GH2LBz6-262" target="WVUv6wu7P0Kf-GH2LBz6-263">
          <mxGeometry width="50" height="50" relative="1" as="geometry">
            <mxPoint x="216.3683471595578" y="108.18181818181822" as="sourcePoint" />
            <mxPoint x="255.00555200947883" y="69.54545454545453" as="targetPoint" />
          </mxGeometry>
        </mxCell>
        <mxCell id="WVUv6wu7P0Kf-GH2LBz6-276" value="" style="endArrow=none;html=1;rounded=0;fontSize=22;fontFamily=Verdana;fontStyle=0" edge="1" parent="WVUv6wu7P0Kf-GH2LBz6-381" source="WVUv6wu7P0Kf-GH2LBz6-256" target="WVUv6wu7P0Kf-GH2LBz6-262">
          <mxGeometry width="50" height="50" relative="1" as="geometry">
            <mxPoint x="224.095788129542" y="115.90909090909092" as="sourcePoint" />
            <mxPoint x="262.73299297946306" y="77.27272727272728" as="targetPoint" />
          </mxGeometry>
        </mxCell>
        <mxCell id="WVUv6wu7P0Kf-GH2LBz6-277" value="" style="endArrow=none;html=1;rounded=0;fontSize=22;fontFamily=Verdana;fontStyle=0" edge="1" parent="WVUv6wu7P0Kf-GH2LBz6-381" source="WVUv6wu7P0Kf-GH2LBz6-251" target="WVUv6wu7P0Kf-GH2LBz6-250">
          <mxGeometry width="50" height="50" relative="1" as="geometry">
            <mxPoint x="231.82322909952617" y="123.63636363636364" as="sourcePoint" />
            <mxPoint x="270.4604339494473" y="85.00000000000001" as="targetPoint" />
          </mxGeometry>
        </mxCell>
        <mxCell id="WVUv6wu7P0Kf-GH2LBz6-278" value="" style="endArrow=none;html=1;rounded=0;fontSize=22;fontFamily=Verdana;fontStyle=0" edge="1" parent="WVUv6wu7P0Kf-GH2LBz6-381" source="WVUv6wu7P0Kf-GH2LBz6-250" target="WVUv6wu7P0Kf-GH2LBz6-249">
          <mxGeometry width="50" height="50" relative="1" as="geometry">
            <mxPoint x="239.55067006951037" y="131.36363636363637" as="sourcePoint" />
            <mxPoint x="278.18787491943135" y="92.72727272727275" as="targetPoint" />
          </mxGeometry>
        </mxCell>
        <mxCell id="WVUv6wu7P0Kf-GH2LBz6-279" value="" style="endArrow=none;html=1;rounded=0;fontSize=22;fontFamily=Verdana;fontStyle=0" edge="1" parent="WVUv6wu7P0Kf-GH2LBz6-381" source="WVUv6wu7P0Kf-GH2LBz6-249" target="WVUv6wu7P0Kf-GH2LBz6-248">
          <mxGeometry width="50" height="50" relative="1" as="geometry">
            <mxPoint x="247.2781110394946" y="139.09090909090912" as="sourcePoint" />
            <mxPoint x="285.9153158894156" y="100.45454545454551" as="targetPoint" />
          </mxGeometry>
        </mxCell>
        <mxCell id="WVUv6wu7P0Kf-GH2LBz6-280" value="" style="endArrow=none;html=1;rounded=0;fontSize=22;fontFamily=Verdana;fontStyle=0" edge="1" parent="WVUv6wu7P0Kf-GH2LBz6-381" source="WVUv6wu7P0Kf-GH2LBz6-248" target="WVUv6wu7P0Kf-GH2LBz6-247">
          <mxGeometry width="50" height="50" relative="1" as="geometry">
            <mxPoint x="255.00555200947883" y="146.81818181818187" as="sourcePoint" />
            <mxPoint x="293.64275685939975" y="108.18181818181822" as="targetPoint" />
          </mxGeometry>
        </mxCell>
        <mxCell id="WVUv6wu7P0Kf-GH2LBz6-281" value="" style="endArrow=none;html=1;rounded=0;fontSize=22;fontFamily=Verdana;fontStyle=0" edge="1" parent="WVUv6wu7P0Kf-GH2LBz6-381" source="WVUv6wu7P0Kf-GH2LBz6-256" target="WVUv6wu7P0Kf-GH2LBz6-255">
          <mxGeometry width="50" height="50" relative="1" as="geometry">
            <mxPoint x="262.73299297946306" y="154.5454545454546" as="sourcePoint" />
            <mxPoint x="301.370197829384" y="115.90909090909092" as="targetPoint" />
          </mxGeometry>
        </mxCell>
        <mxCell id="WVUv6wu7P0Kf-GH2LBz6-282" value="" style="endArrow=none;html=1;rounded=0;fontSize=22;fontFamily=Verdana;fontStyle=0" edge="1" parent="WVUv6wu7P0Kf-GH2LBz6-381" source="WVUv6wu7P0Kf-GH2LBz6-255" target="WVUv6wu7P0Kf-GH2LBz6-254">
          <mxGeometry width="50" height="50" relative="1" as="geometry">
            <mxPoint x="270.4604339494473" y="162.2727272727273" as="sourcePoint" />
            <mxPoint x="309.09763879936827" y="123.63636363636364" as="targetPoint" />
          </mxGeometry>
        </mxCell>
        <mxCell id="WVUv6wu7P0Kf-GH2LBz6-283" value="" style="endArrow=none;html=1;rounded=0;fontSize=22;fontFamily=Verdana;fontStyle=0" edge="1" parent="WVUv6wu7P0Kf-GH2LBz6-381" source="WVUv6wu7P0Kf-GH2LBz6-254" target="WVUv6wu7P0Kf-GH2LBz6-253">
          <mxGeometry width="50" height="50" relative="1" as="geometry">
            <mxPoint x="278.18787491943135" y="170" as="sourcePoint" />
            <mxPoint x="316.8250797693525" y="131.36363636363637" as="targetPoint" />
          </mxGeometry>
        </mxCell>
        <mxCell id="WVUv6wu7P0Kf-GH2LBz6-284" value="" style="endArrow=none;html=1;rounded=0;fontSize=22;fontFamily=Verdana;fontStyle=0" edge="1" parent="WVUv6wu7P0Kf-GH2LBz6-381" source="WVUv6wu7P0Kf-GH2LBz6-253" target="WVUv6wu7P0Kf-GH2LBz6-252">
          <mxGeometry width="50" height="50" relative="1" as="geometry">
            <mxPoint x="285.9153158894156" y="177.72727272727272" as="sourcePoint" />
            <mxPoint x="324.55252073933667" y="139.09090909090912" as="targetPoint" />
          </mxGeometry>
        </mxCell>
        <mxCell id="WVUv6wu7P0Kf-GH2LBz6-285" value="" style="ellipse;whiteSpace=wrap;html=1;rounded=0;fontSize=22;fontFamily=Verdana;fontStyle=0" vertex="1" parent="WVUv6wu7P0Kf-GH2LBz6-381">
          <mxGeometry y="61.818181818181834" width="15.454881939968413" height="15.454545454545455" as="geometry" />
        </mxCell>
        <mxCell id="WVUv6wu7P0Kf-GH2LBz6-286" value="" style="endArrow=none;html=1;rounded=0;fontSize=22;fontFamily=Verdana;fontStyle=0" edge="1" parent="WVUv6wu7P0Kf-GH2LBz6-381" source="WVUv6wu7P0Kf-GH2LBz6-285" target="WVUv6wu7P0Kf-GH2LBz6-266">
          <mxGeometry width="50" height="50" relative="1" as="geometry">
            <mxPoint x="61.81952775987363" y="115.90909090909092" as="sourcePoint" />
            <mxPoint x="100.45673260979466" y="77.27272727272728" as="targetPoint" />
          </mxGeometry>
        </mxCell>
        <mxCell id="WVUv6wu7P0Kf-GH2LBz6-287" value="" style="endArrow=none;html=1;rounded=0;fontSize=22;fontFamily=Verdana;fontStyle=0" edge="1" parent="WVUv6wu7P0Kf-GH2LBz6-381" source="WVUv6wu7P0Kf-GH2LBz6-258" target="WVUv6wu7P0Kf-GH2LBz6-257">
          <mxGeometry width="50" height="50" relative="1" as="geometry">
            <mxPoint x="193.18602424960514" y="-23.181818181818183" as="sourcePoint" />
            <mxPoint x="231.82322909952617" y="-61.81818181818182" as="targetPoint" />
          </mxGeometry>
        </mxCell>
        <mxCell id="WVUv6wu7P0Kf-GH2LBz6-288" value="" style="endArrow=none;html=1;rounded=0;fontSize=22;fontFamily=Verdana;fontStyle=0" edge="1" parent="WVUv6wu7P0Kf-GH2LBz6-381" source="WVUv6wu7P0Kf-GH2LBz6-259" target="WVUv6wu7P0Kf-GH2LBz6-258">
          <mxGeometry width="50" height="50" relative="1" as="geometry">
            <mxPoint x="200.91346521958937" y="-15.454545454545446" as="sourcePoint" />
            <mxPoint x="239.55067006951037" y="-54.09090909090909" as="targetPoint" />
          </mxGeometry>
        </mxCell>
        <mxCell id="WVUv6wu7P0Kf-GH2LBz6-289" value="" style="endArrow=none;html=1;rounded=0;fontSize=22;fontFamily=Verdana;fontStyle=0" edge="1" parent="WVUv6wu7P0Kf-GH2LBz6-381" source="WVUv6wu7P0Kf-GH2LBz6-260" target="WVUv6wu7P0Kf-GH2LBz6-259">
          <mxGeometry width="50" height="50" relative="1" as="geometry">
            <mxPoint x="208.64090618957357" y="-7.727272727272723" as="sourcePoint" />
            <mxPoint x="247.2781110394946" y="-46.36363636363637" as="targetPoint" />
          </mxGeometry>
        </mxCell>
        <mxCell id="WVUv6wu7P0Kf-GH2LBz6-290" value="" style="endArrow=none;html=1;rounded=0;fontSize=22;fontFamily=Verdana;fontStyle=0" edge="1" parent="WVUv6wu7P0Kf-GH2LBz6-381" source="WVUv6wu7P0Kf-GH2LBz6-261" target="WVUv6wu7P0Kf-GH2LBz6-260">
          <mxGeometry width="50" height="50" relative="1" as="geometry">
            <mxPoint x="216.3683471595578" as="sourcePoint" />
            <mxPoint x="255.00555200947883" y="-38.63636363636363" as="targetPoint" />
          </mxGeometry>
        </mxCell>
        <mxCell id="WVUv6wu7P0Kf-GH2LBz6-291" value="" style="endArrow=none;html=1;rounded=0;fontSize=22;fontFamily=Verdana;fontStyle=0" edge="1" parent="WVUv6wu7P0Kf-GH2LBz6-381" source="WVUv6wu7P0Kf-GH2LBz6-264" target="WVUv6wu7P0Kf-GH2LBz6-261">
          <mxGeometry width="50" height="50" relative="1" as="geometry">
            <mxPoint x="224.095788129542" y="7.727272727272736" as="sourcePoint" />
            <mxPoint x="262.73299297946306" y="-30.909090909090907" as="targetPoint" />
          </mxGeometry>
        </mxCell>
        <mxCell id="WVUv6wu7P0Kf-GH2LBz6-383" value="" style="group" vertex="1" connectable="0" parent="WVUv6wu7P0Kf-GH2LBz6-386">
          <mxGeometry x="212.50145501105808" y="30.90909090909091" width="486.8287811090049" height="119.34343434343437" as="geometry" />
        </mxCell>
        <mxCell id="WVUv6wu7P0Kf-GH2LBz6-374" value="root" style="text;html=1;align=center;verticalAlign=middle;whiteSpace=wrap;rounded=0;rotation=0;fontStyle=2;fontSize=16;fontFamily=Verdana;" vertex="1" parent="WVUv6wu7P0Kf-GH2LBz6-383">
          <mxGeometry y="46.36363636363637" width="46.36464581990525" height="23.181818181818183" as="geometry" />
        </mxCell>
        <mxCell id="WVUv6wu7P0Kf-GH2LBz6-375" value="join" style="text;html=1;align=center;verticalAlign=middle;whiteSpace=wrap;rounded=0;rotation=0;fontStyle=2;fontSize=16;fontFamily=Verdana;" vertex="1" parent="WVUv6wu7P0Kf-GH2LBz6-383">
          <mxGeometry x="193.18173122684405" y="104.75005050505052" width="46.368080238114125" height="14.593383838383838" as="geometry" />
        </mxCell>
        <mxCell id="WVUv6wu7P0Kf-GH2LBz6-376" value="forget" style="text;html=1;align=center;verticalAlign=middle;whiteSpace=wrap;rounded=0;rotation=0;fontStyle=2;fontSize=16;fontFamily=Verdana;" vertex="1" parent="WVUv6wu7P0Kf-GH2LBz6-383">
          <mxGeometry x="193.1860242496052" y="7.727272727272736" width="46.36464581990525" height="23.181818181818183" as="geometry" />
        </mxCell>
        <mxCell id="WVUv6wu7P0Kf-GH2LBz6-377" value="leaf" style="text;html=1;align=center;verticalAlign=middle;whiteSpace=wrap;rounded=0;rotation=0;fontStyle=2;fontSize=16;fontFamily=Verdana;" vertex="1" parent="WVUv6wu7P0Kf-GH2LBz6-383">
          <mxGeometry x="425.00925334913137" width="46.36464581990525" height="23.181818181818183" as="geometry" />
        </mxCell>
        <mxCell id="WVUv6wu7P0Kf-GH2LBz6-378" value="introduce" style="text;html=1;align=center;verticalAlign=middle;whiteSpace=wrap;rounded=0;rotation=0;fontStyle=2;fontSize=16;fontFamily=Verdana;" vertex="1" parent="WVUv6wu7P0Kf-GH2LBz6-383">
          <mxGeometry x="440.46413528909983" y="69.54545454545459" width="46.36464581990525" height="23.181818181818183" as="geometry" />
        </mxCell>
      </root>
    </mxGraphModel>
  </diagram>
</mxfile>
